<svg width="100" height="100" viewBox="0 0 594 414" fill="none" xmlns="http://www.w3.org/2000/svg">
<g id="Group">
<path id="Vector" d="M290.2 6.9C254.2 47.4 228.9 108.8 221.5 174C220.2 185.4 219.9 194.4 220.3 216C220.5 231.1 221.1 244.5 221.5 245.7L222.2 248H297.6C339 248 373.1 247.7 373.4 247.2C373.6 246.8 374.4 237 375.1 225.5C377.3 188.4 373.4 155 362.4 116.7C349.8 72.9 326.7 29.5 302.6 4.2C300.4 1.9 298.1 -3.69549e-06 297.4 -3.69549e-06C296.8 -3.69549e-06 293.5 3.1 290.2 6.9Z" fill="#C6C6C6"/>
<path id="Vector_2" d="M1.30001 134.1C2.20001 167 9.90001 196.7 27.4 235.9L32.6 247.5L120.8 247.8L209.1 248L204.1 240.7C186.4 214.5 159.1 186.9 131.4 167.3C92.6 139.9 43.2 119.5 8.10001 116.3L0.700012 115.7L1.30001 134.1Z" fill="#C6C6C6"/>
<path id="Vector_3" d="M583 116.7C538.2 124.4 493.3 144.7 454.5 174.7C429.9 193.8 403.2 222.1 389.6 243.7L387 248H474.5H562L565.5 241C575 222.1 585.9 191.4 590.6 169.8C592.9 159.2 593.4 154.6 593.8 136.7L594.2 116L589.9 116.1C587.5 116.2 584.4 116.5 583 116.7Z" fill="#C6C6C6"/>
<path id="Vector_4" d="M45 270.6C45 271.6 54.1 285.3 57.7 289.7L61.1 294H297.5H533.8L538 289.3C541.9 284.9 550 272.3 550 270.7C550 270.3 436.4 270 297.5 270C158.6 270 45 270.3 45 270.6Z" fill="#C6C6C6"/>
<path id="Vector_5" d="M80 317.6C80 318.6 92.4 331.2 97.3 335.1L102.2 339H296.7H491.1L495.8 335.8C501.9 331.6 514 320 514 318.3C514 317.2 477.4 317 297 317C177.6 317 80 317.3 80 317.6Z" fill="#C6C6C6"/>
<path id="Vector_6" d="M134 361.5C134 362.2 150.6 373.2 161.3 379.4C178.2 389.3 199.6 398.5 219 404.1C228.8 406.9 249.7 411 254.2 411C256.2 411 256.3 410.7 255.7 388.2C255.4 375.7 254.8 364.5 254.5 363.2L253.8 361H193.9C160.9 361 134 361.2 134 361.5Z" fill="#C6C6C6"/>
<path id="Vector_7" d="M260 361.6C260 362.6 268.1 376.2 274.3 385.5C281.5 396.4 288.4 405.1 294 410.5L298.2 414.5L301.6 410.5C311.8 398.8 324 381.4 330.9 368.7L335.2 361H297.6C276.9 361 260 361.3 260 361.6Z" fill="#C6C6C6"/>
<path id="Vector_8" d="M341.5 362.2C340.5 365.5 338.9 382 338.3 395.7L337.7 411H340.1C344.9 411 361.8 407.9 372.8 404.9C397.4 398.4 424.7 386 447.3 371.1C454.8 366 461 361.7 461 361.5C461 361.2 434.2 361 401.5 361C354.7 361 341.9 361.3 341.5 362.2Z" fill="#C6C6C6"/>
</g>
</svg>
